HIERARCHY
ROOT Hips
{
  OFFSET -0.75662601 87.889205933 8.048331261
  CHANNELS 6 Xposition Yposition Zposition Zrotation Xrotation Yrotation
  JOINT Spine
  {
    OFFSET 6e-09 8.814247131 -2.080107689
    CHANNELS 3 Zrotation Xrotation Yrotation
    JOINT Spine1
    {
      OFFSET -2e-09 8.844141006 -1.32e-07
      CHANNELS 3 Zrotation Xrotation Yrotation
      JOINT Spine2
      {
        OFFSET -3e-09 11.682268143 -1.74e-07
        CHANNELS 3 Zrotation Xrotation Yrotation
        JOINT Spine3
        {
          OFFSET -3e-09 11.746700287 -1.75e-07
          CHANNELS 3 Zrotation Xrotation Yrotation
          JOINT Neck
          {
            OFFSET -4e-09 17.65826416 -2.63e-07
            CHANNELS 3 Zrotation Xrotation Yrotation
            JOINT Neck1
            {
              OFFSET -1e-09 5.101514816 -7.6e-08
              CHANNELS 3 Zrotation Xrotation Yrotation
              JOINT Head
              {
                OFFSET -1e-09 5.101514816 -7.6e-08
                CHANNELS 3 Zrotation Xrotation Yrotation
                JOINT HeadEnd
                {
                  OFFSET -3e-09 11.65508461 -1.74e-07
                  CHANNELS 0 
                  End Site
                  {
                    OFFSET -1e-09 3.496525526 -5.2e-08
                  }
                }
              }
            }
          }
          JOINT RightShoulder
          {
            OFFSET -2.625389099 11.175209999 -1.66e-07
            CHANNELS 3 Zrotation Xrotation Yrotation
            JOINT RightArm
            {
              OFFSET -10.434713364 1.866e-06 0.0
              CHANNELS 3 Zrotation Xrotation Yrotation
              JOINT RightForeArm
              {
                OFFSET -29.628414154 5.298e-06 1e-09
                CHANNELS 3 Zrotation Xrotation Yrotation
                JOINT RightHand
                {
                  OFFSET -22.857606888 4.087e-06 1e-09
                  CHANNELS 3 Zrotation Xrotation Yrotation
                  JOINT RightHandThumb1
                  {
                    OFFSET -3.959562778 -2.867321968 2.944291115
                    CHANNELS 3 Zrotation Xrotation Yrotation
                    JOINT RightHandThumb2
                    {
                      OFFSET -2.445448637 -0.174736127 2.28350997
                      CHANNELS 3 Zrotation Xrotation Yrotation
                      JOINT RightHandThumb3
                      {
                        OFFSET -2.741867542 -0.195916325 2.560299873
                        CHANNELS 3 Zrotation Xrotation Yrotation
                        JOINT RightHandThumb4
                        {
                          OFFSET -2.297240019 -0.164146081 2.145115852
                          CHANNELS 0 
                          End Site
                          {
                            OFFSET -0.689172029 -0.049243826 0.64353478
                          }
                        }
                      }
                    }
                  }
                  JOINT RightHandIndex1
                  {
                    OFFSET -10.030892372 -0.086750746 2.345279694
                    CHANNELS 3 Zrotation Xrotation Yrotation
                    JOINT RightHandIndex2
                    {
                      OFFSET -4.061089516 2.42e-07 3e-09
                      CHANNELS 3 Zrotation Xrotation Yrotation
                      JOINT RightHandIndex3
                      {
                        OFFSET -3.248872519 1.94e-07 2e-09
                        CHANNELS 3 Zrotation Xrotation Yrotation
                        JOINT RightHandIndex4
                        {
                          OFFSET -2.639708757 1.57e-07 2e-09
                          CHANNELS 0 
                          End Site
                          {
                            OFFSET -0.791912675 4.7e-08 1e-09
                          }
                        }
                      }
                    }
                  }
                  JOINT RightHandMiddle1
                  {
                    OFFSET -9.502950668 0.104103126 0.006767988
                    CHANNELS 3 Zrotation Xrotation Yrotation
                    JOINT RightHandMiddle2
                    {
                      OFFSET -4.56872654 2.72e-07 3e-09
                      CHANNELS 3 Zrotation Xrotation Yrotation
                      JOINT RightHandMiddle3
                      {
                        OFFSET -3.654980421 2.18e-07 3e-09
                        CHANNELS 3 Zrotation Xrotation Yrotation
                        JOINT RightHandMiddle4
                        {
                          OFFSET -2.741235733 1.63e-07 2e-09
                          CHANNELS 0 
                          End Site
                          {
                            OFFSET -0.822370768 4.9e-08 1e-09
                          }
                        }
                      }
                    }
                  }
                  JOINT RightHandRing1
                  {
                    OFFSET -8.9217062 0.0867531 -2.267441988
                    CHANNELS 3 Zrotation Xrotation Yrotation
                    JOINT RightHandRing2
                    {
                      OFFSET -4.061089516 2.42e-07 3e-09
                      CHANNELS 3 Zrotation Xrotation Yrotation
                      JOINT RightHandRing3
                      {
                        OFFSET -3.654980421 2.18e-07 3e-09
                        CHANNELS 3 Zrotation Xrotation Yrotation
                        JOINT RightHandRing4
                        {
                          OFFSET -2.741235733 1.63e-07 2e-09
                          CHANNELS 0 
                          End Site
                          {
                            OFFSET -0.822370768 4.9e-08 1e-09
                          }
                        }
                      }
                    }
                  }
                  JOINT RightHandPinky1
                  {
                    OFFSET -7.976995468 -0.173503041 -4.467198372
                    CHANNELS 3 Zrotation Xrotation Yrotation
                    JOINT RightHandPinky2
                    {
                      OFFSET -3.35039854 2e-07 2e-09
                      CHANNELS 3 Zrotation Xrotation Yrotation
                      JOINT RightHandPinky3
                      {
                        OFFSET -2.842762709 1.69e-07 2e-09
                        CHANNELS 3 Zrotation Xrotation Yrotation
                        JOINT RightHandPinky4
                        {
                          OFFSET -2.639708757 1.57e-07 2e-09
                          CHANNELS 0 
                          End Site
                          {
                            OFFSET -0.791912675 4.7e-08 1e-09
                          }
                        }
                      }
                    }
                  }
                  JOINT RightForeArmEnd
                  {
                    OFFSET 0.0 0.0 0.0
                    CHANNELS 0 
                    End Site
                    {
                      OFFSET -0.0 -0.0 -0.0
                    }
                  }
                }
                JOINT RightArmEnd
                {
                  OFFSET 0.0 0.0 0.0
                  CHANNELS 0 
                  End Site
                  {
                    OFFSET -0.0 0.0 0.0
                  }
                }
              }
            }
          }
          JOINT LeftShoulder
          {
            OFFSET 2.625389099 11.175209999 -1.67e-07
            CHANNELS 3 Zrotation Xrotation Yrotation
            JOINT LeftArm
            {
              OFFSET 10.813632965 1.934e-06 -0.0
              CHANNELS 3 Zrotation Xrotation Yrotation
              JOINT LeftForeArm
              {
                OFFSET 28.724775314 5.136e-06 -1e-09
                CHANNELS 3 Zrotation Xrotation Yrotation
                JOINT LeftHand
                {
                  OFFSET 25.716159821 -0.644379199 -0.328870922
                  CHANNELS 3 Zrotation Xrotation Yrotation
                  JOINT LeftHandThumb1
                  {
                    OFFSET 3.959562778 -2.86732316 2.944291115
                    CHANNELS 3 Zrotation Xrotation Yrotation
                    JOINT LeftHandThumb2
                    {
                      OFFSET 2.445449114 -0.174736932 2.283510447
                      CHANNELS 3 Zrotation Xrotation Yrotation
                      JOINT LeftHandThumb3
                      {
                        OFFSET 2.741868019 -0.195917219 2.56030035
                        CHANNELS 3 Zrotation Xrotation Yrotation
                        JOINT LeftHandThumb4
                        {
                          OFFSET 2.262683392 -0.161677599 2.112847567
                          CHANNELS 3 Zrotation Xrotation Yrotation
                          End Site
                          {
                            OFFSET 0.678805053 -0.048503283 0.63385427
                          }
                        }
                      }
                    }
                  }
                  JOINT LeftHandIndex1
                  {
                    OFFSET 10.030893326 -0.086753085 2.345279694
                    CHANNELS 3 Zrotation Xrotation Yrotation
                    JOINT LeftHandIndex2
                    {
                      OFFSET 4.061089516 -4.84e-07 -2e-09
                      CHANNELS 3 Zrotation Xrotation Yrotation
                      JOINT LeftHandIndex3
                      {
                        OFFSET 3.248872757 -3.87e-07 -2e-09
                        CHANNELS 3 Zrotation Xrotation Yrotation
                        JOINT LeftHandIndex4
                        {
                          OFFSET 2.639708757 -3.15e-07 -1e-09
                          CHANNELS 0 
                          End Site
                          {
                            OFFSET 0.791912675 -9.4e-08 -0.0
                          }
                        }
                      }
                    }
                  }
                  JOINT LeftHandMiddle1
                  {
                    OFFSET 9.502951622 0.10410098 0.006767988
                    CHANNELS 3 Zrotation Xrotation Yrotation
                    JOINT LeftHandMiddle2
                    {
                      OFFSET 4.56872654 -5.45e-07 -2e-09
                      CHANNELS 3 Zrotation Xrotation Yrotation
                      JOINT LeftHandMiddle3
                      {
                        OFFSET 3.654980659 -4.36e-07 -2e-09
                        CHANNELS 3 Zrotation Xrotation Yrotation
                        JOINT LeftHandMiddle4
                        {
                          OFFSET 2.741235733 -3.27e-07 -1e-09
                          CHANNELS 0 
                          End Site
                          {
                            OFFSET 0.822370768 -9.8e-08 -0.0
                          }
                        }
                      }
                    }
                  }
                  JOINT LeftHandRing1
                  {
                    OFFSET 8.921708107 0.086751021 -2.267441988
                    CHANNELS 3 Zrotation Xrotation Yrotation
                    JOINT LeftHandRing2
                    {
                      OFFSET 4.061089516 -4.84e-07 -2e-09
                      CHANNELS 3 Zrotation Xrotation Yrotation
                      JOINT LeftHandRing3
                      {
                        OFFSET 3.654980659 -4.36e-07 -2e-09
                        CHANNELS 3 Zrotation Xrotation Yrotation
                        JOINT LeftHandRing4
                        {
                          OFFSET 2.741235733 -3.27e-07 -1e-09
                          CHANNELS 0 
                          End Site
                          {
                            OFFSET 0.822370768 -9.8e-08 -0.0
                          }
                        }
                      }
                    }
                  }
                  JOINT LeftHandPinky1
                  {
                    OFFSET 7.976996422 -0.173504964 -4.467198372
                    CHANNELS 3 Zrotation Xrotation Yrotation
                    JOINT LeftHandPinky2
                    {
                      OFFSET 3.350398779 -3.99e-07 -2e-09
                      CHANNELS 3 Zrotation Xrotation Yrotation
                      JOINT LeftHandPinky3
                      {
                        OFFSET 2.842762709 -3.39e-07 -1e-09
                        CHANNELS 3 Zrotation Xrotation Yrotation
                        JOINT LeftHandPinky4
                        {
                          OFFSET 2.639708757 -3.15e-07 -1e-09
                          CHANNELS 0 
                          End Site
                          {
                            OFFSET 0.791912675 -9.4e-08 -0.0
                          }
                        }
                      }
                    }
                  }
                  JOINT LeftForeArmEnd
                  {
                    OFFSET 0.0 0.0 0.0
                    CHANNELS 0 
                    End Site
                    {
                      OFFSET 0.0 -0.0 -0.0
                    }
                  }
                }
                JOINT LeftArmEnd
                {
                  OFFSET 0.0 0.0 0.0
                  CHANNELS 0 
                  End Site
                  {
                    OFFSET 0.0 -0.0 -0.0
                  }
                }
              }
            }
          }
        }
      }
    }
  }
  JOINT RightUpLeg
  {
    OFFSET -11.289941788 8e-09 -1e-09
    CHANNELS 3 Zrotation Xrotation Yrotation
    JOINT RightLeg
    {
      OFFSET 9e-09 -38.200317383 5.69e-07
      CHANNELS 3 Zrotation Xrotation Yrotation
      JOINT RightFoot
      {
        OFFSET 9e-09 -39.900848389 5.95e-07
        CHANNELS 3 Zrotation Xrotation Yrotation
        JOINT RightToeBase
        {
          OFFSET 0.0 5.59e-06 15.261640549
          CHANNELS 3 Zrotation Xrotation Yrotation
          JOINT RightToeBaseEnd
          {
            OFFSET 0.0 2.748e-06 7.370708942
            CHANNELS 0 
            End Site
            {
              OFFSET 0.0 3.95e-07 2.211212873
            }
          }
        }
        JOINT RightLegEnd
        {
          OFFSET 0.0 0.0 0.0
          CHANNELS 0 
          End Site
          {
            OFFSET 0.0 0.0 0.0
          }
        }
      }
      JOINT RightUpLegEnd
      {
        OFFSET 0.0 0.0 0.0
        CHANNELS 0 
        End Site
        {
          OFFSET 0.0 -0.0 0.0
        }
      }
    }
  }
  JOINT LeftUpLeg
  {
    OFFSET 11.31566143 -9e-09 1e-09
    CHANNELS 3 Zrotation Xrotation Yrotation
    JOINT LeftLeg
    {
      OFFSET 9e-09 -38.200317383 5.69e-07
      CHANNELS 3 Zrotation Xrotation Yrotation
      JOINT LeftFoot
      {
        OFFSET 9e-09 -39.900848389 5.95e-07
        CHANNELS 3 Zrotation Xrotation Yrotation
        JOINT LeftToeBase
        {
          OFFSET 0.0 5.59e-06 15.261640549
          CHANNELS 3 Zrotation Xrotation Yrotation
          JOINT LeftToeBaseEnd
          {
            OFFSET 0.0 1.825e-06 7.539995193
            CHANNELS 0 
            End Site
            {
              OFFSET 0.0 4.04e-07 2.261998653
            }
          }
        }
        JOINT LeftLegEnd
        {
          OFFSET 0.0 0.0 0.0
          CHANNELS 0 
          End Site
          {
            OFFSET 0.0 0.0 0.0
          }
        }
      }
      JOINT LeftUpLegEnd
      {
        OFFSET 0.0 0.0 0.0
        CHANNELS 0 
        End Site
        {
          OFFSET 0.0 -0.0 0.0
        }
      }
    }
  }
}
MOTION
Frames: 4
Frame Time: 0.03333333333333333
0.505656004 87.809799194 8.180038452 -0.685804069 -20.383699417 -0.796986043 -1.179501653 10.383863449 0.271141678 0.197362274 1.12905407 -0.00691334 3.154353857 17.20647049 -0.562815547 2.784248829 8.741369247 0.148552582 0.793439746 12.499295235 2.846300125 0.929117143 -0.280799985 2.717079639 -0.406150728 -20.684612274 0.649457455 2.157501936 0.788257897 10.380012512 52.140670776 16.853610992 14.802926064 0.070239715 -11.333249092 33.82781601 11.736637115 -32.869094849 -2.367636204 7.267321587 2.24241209 -3.336662531 0.520160854 1.941920161 -27.951288223 0.260902226 1.378254533 -19.3997612 15.711494446 -16.158946991 -9.186956406 11.349001884 0.64527005 -3.006852627 11.117864609 -0.333694577 -2.820165396 15.439805031 -6.760499001 -10.222652435 11.234005928 0.851530075 -1.20026958 11.192599297 -0.120709911 -1.023869753 19.405923843 8.786302567 -11.319105148 12.63623333 -1.749915004 1.706539273 12.515425682 0.180017754 1.314597249 23.307060242 24.954605103 -13.194221497 12.255288124 -3.289860249 5.04183054 12.290438652 0.563907504 4.275426865 -2.068696022 0.699745595 -13.034835815 -50.988441467 29.986747742 -12.500959396 -0.524292529 -16.120046616 -52.371234894 -9.523220062 -21.636302948 6.734253407 -7.055747509 2.240690947 3.233950138 -0.503298223 1.911253214 27.469444275 -0.25179562 1.353503227 19.03502655 -0.001270429 0.001280646 0.001273845 -18.736888885 16.167572021 8.362845421 -10.469974518 -0.649626493 -3.050286531 -10.489987373 0.326435715 -2.853956699 -16.850982666 6.742052555 9.43966198 -10.520234108 -0.857400119 -1.188383937 -10.501629829 0.115338817 -1.01536715 -16.105623245 -8.76764679 9.661809921 -12.204030037 1.774098039 1.688887239 -12.106137276 -0.153599754 1.301771641 -13.608960152 -25.407152176 11.949036598 -12.411585808 3.405581236 4.891079426 -12.49136734 -0.463624388 4.135670185 -4.039536476 17.787225723 4.387087822 0.005769931 15.28690815 -0.907524884 0.690165877 13.143717766 -1.745534062 -0.590499043 -18.473726273 1.089759707 2.753446817 25.133188248 13.090724945 -0.003633967 8.90087986 1.140679479 -6.899171829 12.038237572 12.675858498 0.79468596 -15.41519928 -1.628196239 
0.511313915 87.809410095 8.169726372 -0.688226938 -20.413721085 -0.788043857 -1.161213398 10.391978264 0.268081397 0.226495072 1.144261122 -0.013873765 3.131321907 17.153793335 -0.52785337 2.779538393 8.740617752 0.157561973 0.798381329 12.543451309 2.834932327 0.904391468 -0.257001936 2.68320632 -0.388016075 -20.730583191 0.664912522 2.059570789 0.7562415 10.334001541 52.150180817 15.741053581 14.635788918 0.076990731 -11.821060181 34.851272583 12.265146255 -33.612258911 -1.944896817 7.245415211 2.240268469 -3.329540491 0.518554211 1.939027309 -27.905731201 0.260210842 1.376403689 -19.372591019 15.655042648 -16.154146194 -9.005880356 11.310061455 0.650268614 -2.983448029 11.07891655 -0.328171581 -2.798284769 15.386756897 -6.761227608 -10.111192703 11.219567299 0.853018939 -1.192859411 11.18533802 -0.119154878 -1.018037796 19.398485184 8.787934303 -11.334845543 12.667373657 -1.75131166 1.701758742 12.54602623 0.178592756 1.31070745 23.395954132 24.952449799 -13.322601318 12.328205109 -3.291688919 5.043660164 12.358617783 0.5600577 4.275514603 -1.966388464 0.673226178 -12.984485626 -51.059188843 28.780910492 -12.377223015 -0.521673322 -16.629920959 -53.280918121 -9.86934948 -21.809944153 6.351571083 -7.069396496 2.242690563 3.240310431 -0.504551709 1.913553238 27.505468369 -0.252287626 1.354841471 19.054599762 -0.0012414 0.001246497 0.001179929 -18.717466354 16.16400528 8.195847511 -10.456867218 -0.650835276 -3.041326046 -10.470862389 0.325311601 -2.845519066 -16.850006104 6.742594242 9.319926262 -10.529952049 -0.857595146 -1.185357094 -10.509690285 0.115092836 -1.013091326 -16.132806778 -8.767866135 9.627866745 -12.240306854 1.773568511 1.687131405 -12.142071724 -0.153339833 1.300324798 -13.630143166 -25.408256531 11.996313095 -12.473809242 3.405406713 4.89418745 -12.548529625 -0.463522643 4.134915829 -4.043923378 17.788324356 4.41225338 0.006251176 15.324152946 -0.90522182 0.690622449 13.116567612 -1.761089087 -0.591235638 -18.466377258 1.086665034 2.753772974 25.144599915 13.079663277 -0.003491811 8.910225868 1.142086387 -6.875165462 12.02296257 12.658951759 0.795615673 -15.40900898 -1.632557511 
0.517543077 87.808044434 8.160211563 -0.689575791 -20.442241669 -0.788290203 -1.144096851 10.402695656 0.26421082 0.25292787 1.154940128 -0.022219511 3.114816904 17.100217819 -0.505832314 2.777828932 8.735780716 0.159953699 0.801089942 12.603401184 2.82506299 0.877518833 -0.227620587 2.653902531 -0.371912986 -20.784133911 0.679696977 1.944537759 0.721909106 10.27419281 52.224311829 14.50189209 14.430995941 0.084563963 -12.352636337 35.964626312 12.902087212 -34.565238953 -1.399029851 7.21705389 2.237055779 -3.319531679 0.516466558 1.935263634 -27.846500397 0.25927043 1.373850942 -19.335077286 15.566619873 -16.152820587 -8.822548866 11.258432388 0.655585051 -2.957581043 11.027453423 -0.322299659 -2.774173498 15.310330391 -6.762633801 -9.996566772 11.195711136 0.854619086 -1.184598327 11.168024063 -0.11746183 -1.011544466 19.391067505 8.789155006 -11.349711418 12.697458267 -1.752817035 1.6967839 12.575712204 0.177029818 1.306620955 23.50567627 24.946462631 -13.45386982 12.409953117 -3.293288231 5.04759264 12.436219215 0.5564363 4.276643753 -1.849808216 0.641751826 -12.934654236 -51.225959778 27.456634521 -12.224401474 -0.530566096 -17.171094894 -54.137821198 -10.222640991 -22.172317505 5.944537163 -7.08197546 2.244534492 3.245723486 -0.505605578 1.91550076 27.535995483 -0.252661407 1.355883479 19.069862366 -0.001211516 0.001214054 0.001097966 -18.684837341 16.163797379 8.018064499 -10.443088531 -0.65205735 -3.032465696 -10.450156212 0.324154705 -2.837177515 -16.844537735 6.743375778 9.189439774 -10.538619041 -0.857783318 -1.18232882 -10.516238213 0.114830926 -1.010766149 -16.168739319 -8.766509056 9.583684921 -12.277775764 1.772931576 1.685190558 -12.17804718 -0.153036833 1.29868865 -13.670912743 -25.400920868 12.036477089 -12.536410332 3.405025244 4.897017479 -12.60500145 -0.463306516 4.133553982 -4.059043407 17.78792572 4.449347019 0.006764632 15.363367081 -0.902651787 0.693580627 13.088297844 -1.77256763 -0.591923118 -18.459856033 1.082699656 2.747402906 25.157346725 13.06573391 -0.003168206 8.92015934 1.143890023 -6.851817131 12.004634857 12.646186829 0.795311928 -15.403420448 -1.639045477 
0.524416924 87.80582428 8.151468277 -0.689121544 -20.467391968 -0.798222601 -1.129454374 10.414131165 0.259536356 0.27607885 1.161016822 -0.031726517 3.106416702 17.047243118 -0.49897489 2.778046131 8.727342606 0.155959904 0.808448493 12.669888496 2.815164804 0.850414634 -0.196965978 2.632323503 -0.359297812 -20.840589523 0.694013715 1.813841701 0.687053323 10.200691223 52.365638733 13.132098198 14.195196152 0.093802139 -12.924996376 37.164779663 13.663402557 -35.742107391 -0.716819048 7.187710285 2.233432055 -3.308833361 0.514299393 1.931329489 -27.784572601 0.258258164 1.371133685 -19.295116425 15.461166382 -16.153968811 -8.628499985 11.194813728 0.660296142 -2.931630373 10.964379311 -0.317035586 -2.749880075 15.226011276 -6.764449596 -9.869094849 11.1639328 0.856001258 -1.17644453 11.142173767 -0.115933895 -1.00510478 19.398626328 8.78964138 -11.350152969 12.72946167 -1.753900766 1.692866087 12.607380867 0.175743908 1.303330064 23.650339127 24.935663223 -13.573539734 12.504611015 -3.293124199 5.057670593 12.527003288 0.554567277 4.282206535 -1.727220416 0.608787954 -12.888306618 -51.483997345 26.033983231 -12.03523922 -0.548999548 -17.73125267 -54.952476501 -10.587157249 -22.744850159 5.496967793 -7.096871853 2.246607065 3.251760244 -0.506750822 1.917599559 27.568990707 -0.253100127 1.357056379 19.08706665 -0.001195294 0.001188442 0.001024541 -18.653587341 16.166820526 7.830300331 -10.433559418 -0.65259248 -3.026203632 -10.432917595 0.323718399 -2.831074715 -16.84828186 6.744603157 9.048984528 -10.552079201 -0.857713997 -1.180297971 -10.526431084 0.114779927 -1.009161115 -16.22375679 -8.764318466 9.531461716 -12.321578979 1.771826386 1.684481502 -12.219637871 -0.153057769 1.297908664 -13.739398003 -25.3872509 12.071613312 -12.602318764 3.403277397 4.90372324 -12.664035797 -0.464125991 4.134862423 -4.084673882 17.783893585 4.499923706 0.00730976 15.406837463 -0.899945438 0.699973643 13.060413361 -1.782363057 -0.592523992 -18.456384659 1.078233242 2.732943296 25.172657013 13.052991867 -0.002608308 8.925686836 1.145951867 -6.830302715 11.987611771 12.639008522 0.793788135 -15.399030685 -1.647044897 
